<?xml version="1.0" standalone="no"?>
<svg height="500" width="500" viewBox="0 0 200 200" xmlns="http://www.w3.org/2000/svg">
  <path fill="#FF0066" d="M37.3,-61.9C50.1,-57.3,63.4,-50.8,66.4,-40.2C69.4,-29.5,62.1,-14.8,56.2,-3.4C50.2,7.9,45.6,15.8,40.1,22.1C34.6,28.4,28.3,33.2,21.4,41.8C14.6,50.3,7.3,62.8,-3.2,68.4C-13.7,74,-27.5,72.7,-37.8,66.1C-48.1,59.5,-55,47.7,-62,35.8C-68.9,23.8,-75.8,11.9,-74.6,0.7C-73.5,-10.6,-64.2,-21.2,-53.7,-26.7C-43.1,-32.3,-31.2,-32.8,-22,-39.6C-12.9,-46.4,-6.4,-59.4,2.9,-64.5C12.3,-69.5,24.5,-66.6,37.3,-61.9Z" transform="translate(100 100)" />
</svg>
