<?xml version="1.0" encoding="UTF-8"?>
<svg fill="#FCBA03" width="24" version="1.1" viewBox="0 0 700 700" xmlns="http://www.w3.org/2000/svg">
 <path d="m513.89 560c-8.5156 0-17.426-3.3633-27.234-10.324l-113.98-80.309c-11.359-7.9766-33.898-7.9961-45.215-0.019532l-114.11 80.348c-20.172 14.262-39.469 12.91-49.453-0.65625-6.7031-9.1094-7.6406-21.664-2.7656-37.301l41.199-133.24c4.2578-13.824-2.4453-34.336-14.043-43.008l-111.64-83.668c-21.883-16.41-20.867-32.027-18.32-39.906 2.5664-7.8594 10.922-21.086 38.254-21.504l139.51-2.0078c14.5-0.21875 31.969-12.91 36.684-26.656l44.977-131.99c8.7852-25.898 23.965-29.758 32.219-29.758s23.434 3.8594 32.266 29.758l45.098 132.03c4.6758 13.727 22.121 26.418 36.602 26.637l139.47 2.0078c27.332 0.41797 35.727 13.625 38.293 21.465 2.5664 7.8359 3.6211 23.434-18.16 39.906l-111.82 83.707c-11.559 8.6914-18.223 29.184-13.945 42.988l41.137 133.32c4.832 15.637 3.8789 28.188-2.8438 37.277-5.1523 6.9258-13.227 10.906-22.18 10.906zm-400.1-330.02 98.309 73.684c25.023 18.699 37.418 56.754 28.227 86.594l-36.285 117.35 100.46-70.738c24.688-17.484 66.242-17.504 91.09 0l100.38 70.719-36.203-117.33c-9.2305-29.758 3.082-67.793 28.07-86.574l98.449-73.703-122.94-1.7695c-31.23-0.4375-63.598-23.992-73.664-53.57l-39.707-116.23-39.586 116.23c-10.164 29.602-42.551 53.133-73.742 53.57z"/>
</svg>
