<?xml version="1.0" encoding="UTF-8"?>
<svg width="700pt" height="700pt" version="1.1" viewBox="0 0 700 700" xmlns="http://www.w3.org/2000/svg">
 <path d="m350 87.941 58.352 85.145c6.0781 8.8438 15.008 15.332 25.301 18.379l99.008 29.188-62.945 81.809v-0.003907c-6.5352 8.5117-9.9492 19.012-9.6641 29.738l2.8398 103.18-97.254-34.582c-5.0195-1.7852-10.309-2.6992-15.637-2.6953 0-1.4297-0.066406-310.15-0.066406-310.15l0.066406-0.007813m0-23.332c-7.7031-0.03125-14.918 3.7695-19.246 10.141l-58.352 85.145c-3.0352 4.4258-7.5039 7.6719-12.652 9.1875l-99.008 29.188c-7.3789 2.1758-13.215 7.8516-15.594 15.172-2.3789 7.3164-0.99219 15.34 3.6992 21.438l62.945 81.809c3.2734 4.2539 4.9766 9.5039 4.832 14.867l-2.8398 103.18v0.003906c-0.23438 7.6992 3.3555 15.02 9.5898 19.547 6.2305 4.5273 14.301 5.6797 21.555 3.0781l97.254-34.582-0.003906-0.003906c5.0586-1.7969 10.582-1.7969 15.637 0l97.254 34.582v0.003906c7.25 2.6016 15.32 1.4492 21.555-3.0781s9.8242-11.848 9.5859-19.547l-2.8398-103.18 0.003906-0.003906c-0.14844-5.3633 1.5586-10.613 4.832-14.867l62.945-81.809c4.6914-6.0977 6.0742-14.121 3.6953-21.438-2.375-7.3203-8.2109-12.996-15.594-15.172l-99.004-29.188c-5.1484-1.5156-9.6172-4.7617-12.652-9.1875l-58.352-85.145c-4.332-6.3711-11.543-10.172-19.246-10.141z"/>
</svg>
