<?xml version="1.0" encoding="UTF-8"?>
<svg fill="#FCBA03" width="24" version="1.1" viewBox="0 0 700 700" xmlns="http://www.w3.org/2000/svg">
 <path d="m513.89 560.02c-8.5156 0-17.445-3.3633-27.215-10.344l-113.99-80.289c-11.379-7.9766-33.918-7.9961-45.219-0.019531l-114.11 80.348c-20.188 14.266-39.484 12.891-49.473-0.65625-6.7227-9.1094-7.6602-21.664-2.7852-37.301l41.18-133.25c4.2773-13.824-2.4453-34.336-14.023-43.008l-111.66-83.672c-21.883-16.41-20.867-32.008-18.301-39.906 2.5664-7.8594 10.941-21.105 38.254-21.504l139.53-2.0078c14.504-0.23828 31.949-12.91 36.703-26.656l44.961-132.01c8.8516-25.922 24.012-29.781 32.285-29.781 8.2344 0 23.434 3.8594 32.246 29.762l45.117 132.03c4.6562 13.727 22.102 26.418 36.605 26.656l139.45 2.0078c27.352 0.41797 35.75 13.629 38.316 21.465 2.5664 7.8398 3.6406 23.434-18.184 39.906l-111.82 83.711c-11.539 8.6953-18.223 29.184-13.926 42.988l41.121 133.32c4.8555 15.637 3.8789 28.188-2.8438 37.281-5.2148 6.9219-13.293 10.922-22.227 10.922z"/>
</svg>
