<?xml version="1.0" encoding="UTF-8"?>
<svg fill="#FCBA03" width="24" version="1.1" viewBox="0 0 700 700" xmlns="http://www.w3.org/2000/svg">
 <path d="m513.89 560.02c-8.5547 0-17.445-3.3633-27.273-10.344l-113.97-80.289c-11.379-7.9766-33.898-7.9961-45.219-0.019531l-114.11 80.348c-20.172 14.266-39.488 12.891-49.453-0.65625-6.7031-9.1094-7.6602-21.664-2.7852-37.301l41.18-133.25c4.2773-13.824-2.4453-34.336-14.023-43.008l-111.66-83.672c-21.883-16.41-20.828-32.008-18.301-39.906 2.5664-7.8594 10.941-21.105 38.254-21.504l139.53-2.0078c14.504-0.23828 31.949-12.91 36.664-26.656l45-132.01c8.8125-25.922 24.012-29.781 32.246-29.781 8.2773 0 23.473 3.8594 32.309 29.762l45.117 132.03c4.6562 13.727 22.102 26.418 36.605 26.656l139.45 2.0078c27.352 0.41797 35.75 13.629 38.316 21.465 2.5664 7.8398 3.6211 23.434-18.184 39.906l-111.82 83.711c-11.539 8.6953-18.223 29.184-13.906 42.988l41.102 133.32c4.8555 15.637 3.8789 28.188-2.8438 37.281-5.2188 6.9219-13.297 10.922-22.23 10.922zm-165.45-136.27c17.109-0.27734 34.316 4.1172 47.109 13.09l100.36 70.742-36.168-117.33c-9.25-29.742 3.0625-67.777 28.051-86.578l98.453-73.707-122.94-1.7695c-31.234-0.4375-63.598-23.992-73.664-53.574l-39.727-116.24z"/>
</svg>
