<?xml version="1.0" encoding="UTF-8"?>
<svg fill="#379683" width="120" height="120" version="1.1" viewBox="0 0 700 550" xmlns="http://www.w3.org/2000/svg">
 <path d="m340.57 40.309c30.387 0 57.922 12.328 77.863 32.266 19.969 19.98 32.289 47.512 32.289 77.891 0 30.387-12.328 57.914-32.266 77.855-19.98 19.969-47.512 32.289-77.891 32.289-30.387 0-57.914-12.328-77.855-32.266-19.969-19.98-32.289-47.512-32.289-77.883 0-30.387 12.328-57.922 32.266-77.863 19.98-19.969 47.504-32.289 77.883-32.289zm179.57 351.62h8.8359c3.0898 0 5.6016 2.5117 5.6016 5.6016v34.684h34.684c3.0898 0 5.6016 2.5117 5.6016 5.6016v8.8359c0 3.0898-2.5117 5.6016-5.6016 5.6016h-34.684v34.684c0 3.0898-2.5117 5.6016-5.6016 5.6016h-8.8359c-3.0898 0-5.6016-2.5117-5.6016-5.6016v-34.684h-34.684c-3.0898 0-5.6016-2.5117-5.6016-5.6016v-8.8359c0-3.0898 2.5117-5.6016 5.6016-5.6016h34.684v-34.684c0-3.0898 2.5117-5.6016 5.6016-5.6016zm5.3984 50.309-0.98047-0.98047-0.98047 0.98047 0.98047 0.98047zm-0.98047-77.445c21.352 0 40.711 8.6719 54.734 22.688 14.047 14.062 22.715 33.414 22.715 54.758 0 21.352-8.6719 40.711-22.688 54.734-14.062 14.047-33.414 22.715-54.758 22.715-21.363 0-40.723-8.6797-54.738-22.68-14.027-14.043-22.707-33.395-22.707-54.766 0-21.363 8.6797-40.723 22.68-54.738 14.043-14.027 33.402-22.707 54.766-22.707zm46.848 30.598c-11.977-11.977-28.547-19.395-46.848-19.395-18.297 0-34.871 7.4141-46.855 19.387-11.973 11.984-19.387 28.559-19.387 46.855 0 18.301 7.4141 34.871 19.387 46.855 11.984 11.973 28.559 19.387 46.855 19.387 18.301 0 34.871-7.4141 46.836-19.379 11.992-11.992 19.406-28.559 19.406-46.863 0-18.301-7.4141-34.871-19.395-46.848zm-306.39 107.12c-58.535-11.457-115.05-36.391-164.63-74.781-2.2539-1.582-3.0508-4.6289-1.7578-7.1367 23.328-45.301 58.344-82.195 100.25-107.75 41.926-25.562 90.766-39.812 141.7-39.812 34.488 0 68.02 6.5352 99.113 18.699 31.578 12.355 60.625 30.531 85.555 53.555 1.0586 0.99219 1.7461 2.3828 1.793 3.9414 0.09375 3.0742-2.3281 5.6562-5.4023 5.7461-23.461 0.76562-44.602 10.812-59.84 26.57-15.18 15.695-24.531 37.105-24.531 60.699 0 8.1172 1.0898 15.934 3.1172 23.281 2.1016 7.6133 5.2305 14.836 9.1875 21.465 0.28516 0.44141 0.50391 0.9375 0.64844 1.4688 0.82031 2.9688-0.91797 6.0469-3.8906 6.8672-59.137 16.527-121.32 18.93-181.3 7.1914z" fill-rule="evenodd"/>
</svg>
