<svg title="Twitter logo" viewBox="0 0 24 24" width="24" ><path fill="#EAE3D2" fill-rule="evenodd" d="M21.999 6.275a8.703 8.703 0 01-2.356.597c.846-.469 1.497-1.212 1.804-2.095a8.632 8.632 0 01-2.606.918C18.093 4.96 17.027 4.5 15.847 4.5c-2.266 0-4.104 1.694-4.104 3.786 0 .297.038.586.106.863-3.41-.158-6.433-1.665-8.456-3.955a3.543 3.543 0 00-.556 1.903c0 1.314.725 2.474 1.826 3.152a4.357 4.357 0 01-1.86-.475v.048c0 1.835 1.414 3.365 3.291 3.713a4.472 4.472 0 01-1.852.066c.521 1.504 2.037 2.6 3.833 2.63-1.404 1.015-3.174 1.62-5.096 1.62A9.01 9.01 0 012 17.799 12.324 12.324 0 008.29 19.5c7.548 0 11.675-5.77 11.675-10.774 0-.163-.004-.327-.012-.49A8.062 8.062 0 0022 6.277l-.001-.001z" clip-rule="evenodd"></path></svg>